<svg width="100" height="100" viewBox="0 0 100 100" xmlns="http://www.w3.org/2000/svg">
  <g fill="none" stroke="white" stroke-width="2">
    <!-- Petals -->
    <path d="M50,15 Q60,35 50,55 Q40,35 50,15" transform="rotate(0, 50, 50)"/>
    <path d="M50,15 Q60,35 50,55 Q40,35 50,15" transform="rotate(90, 50, 50)"/>
    <path d="M50,15 Q60,35 50,55 Q40,35 50,15" transform="rotate(180, 50, 50)"/>
    <path d="M50,15 Q60,35 50,55 Q40,35 50,15" transform="rotate(270, 50, 50)"/>
    <!-- Square -->
    <rect x="35" y="35" width="30" height="30" />
    <!-- Center Point -->
    <circle cx="50" cy="50" r="2" fill="white"/>
  </g>
</svg>