<svg width="100" height="100" viewBox="0 0 100 100" xmlns="http://www.w3.org/2000/svg">
  <g fill="none" stroke="white" stroke-width="2">
    <!-- Petals -->
    <path d="M50,15 Q58,35 50,55 Q42,35 50,15" transform="rotate(0, 50, 50)"/>
    <path d="M50,15 Q58,35 50,55 Q42,35 50,15" transform="rotate(36, 50, 50)"/>
    <path d="M50,15 Q58,35 50,55 Q42,35 50,15" transform="rotate(72, 50, 50)"/>
    <path d="M50,15 Q58,35 50,55 Q42,35 50,15" transform="rotate(108, 50, 50)"/>
    <path d="M50,15 Q58,35 50,55 Q42,35 50,15" transform="rotate(144, 50, 50)"/>
    <path d="M50,15 Q58,35 50,55 Q42,35 50,15" transform="rotate(180, 50, 50)"/>
    <path d="M50,15 Q58,35 50,55 Q42,35 50,15" transform="rotate(216, 50, 50)"/>
    <path d="M50,15 Q58,35 50,55 Q42,35 50,15" transform="rotate(252, 50, 50)"/>
    <path d="M50,15 Q58,35 50,55 Q42,35 50,15" transform="rotate(288, 50, 50)"/>
    <path d="M50,15 Q58,35 50,55 Q42,35 50,15" transform="rotate(324, 50, 50)"/>
    <!-- Triangle -->
    <path d="M40,40 L60,40 L50,60 Z" />
    <!-- Center Point -->
    <circle cx="50" cy="46" r="1.5" fill="white"/>
  </g>
</svg>