<svg width="100" height="100" viewBox="0 0 100 100" xmlns="http://www.w3.org/2000/svg">
  <g fill="none" stroke="white" stroke-width="2">
    <!-- Petals -->
    <path d="M50,15 Q53,35 50,55 Q47,35 50,15" transform="rotate(0, 50, 50)"/>
    <path d="M50,15 Q53,35 50,55 Q47,35 50,15" transform="rotate(22.5, 50, 50)"/>
    <path d="M50,15 Q53,35 50,55 Q47,35 50,15" transform="rotate(45, 50, 50)"/>
    <path d="M50,15 Q53,35 50,55 Q47,35 50,15" transform="rotate(67.5, 50, 50)"/>
    <path d="M50,15 Q53,35 50,55 Q47,35 50,15" transform="rotate(90, 50, 50)"/>
    <path d="M50,15 Q53,35 50,55 Q47,35 50,15" transform="rotate(112.5, 50, 50)"/>
    <path d="M50,15 Q53,35 50,55 Q47,35 50,15" transform="rotate(135, 50, 50)"/>
    <path d="M50,15 Q53,35 50,55 Q47,35 50,15" transform="rotate(157.5, 50, 50)"/>
    <path d="M50,15 Q53,35 50,55 Q47,35 50,15" transform="rotate(180, 50, 50)"/>
    <path d="M50,15 Q53,35 50,55 Q47,35 50,15" transform="rotate(202.5, 50, 50)"/>
    <path d="M50,15 Q53,35 50,55 Q47,35 50,15" transform="rotate(225, 50, 50)"/>
    <path d="M50,15 Q53,35 50,55 Q47,35 50,15" transform="rotate(247.5, 50, 50)"/>
    <path d="M50,15 Q53,35 50,55 Q47,35 50,15" transform="rotate(270, 50, 50)"/>
    <path d="M50,15 Q53,35 50,55 Q47,35 50,15" transform="rotate(292.5, 50, 50)"/>
    <path d="M50,15 Q53,35 50,55 Q47,35 50,15" transform="rotate(315, 50, 50)"/>
    <path d="M50,15 Q53,35 50,55 Q47,35 50,15" transform="rotate(337.5, 50, 50)"/>
    <!-- Center Circle and Triangle -->
    <circle cx="50" cy="50" r="10" />
    <path d="M45,45 L55,45 L50,55 Z" />
  </g>
</svg>