<svg width="100" height="100" viewBox="0 0 100 100" xmlns="http://www.w3.org/2000/svg">
  <g fill="none" stroke="white" stroke-width="2">
    <!-- Petals -->
    <path d="M50,15 Q60,35 50,55 Q40,35 50,15" transform="rotate(0, 50, 50)"/>
    <path d="M50,15 Q60,35 50,55 Q40,35 50,15" transform="rotate(60, 50, 50)"/>
    <path d="M50,15 Q60,35 50,55 Q40,35 50,15" transform="rotate(120, 50, 50)"/>
    <path d="M50,15 Q60,35 50,55 Q40,35 50,15" transform="rotate(180, 50, 50)"/>
    <path d="M50,15 Q60,35 50,55 Q40,35 50,15" transform="rotate(240, 50, 50)"/>
    <path d="M50,15 Q60,35 50,55 Q40,35 50,15" transform="rotate(300, 50, 50)"/>
    <!-- Crescent -->
    <path d="M40,50 A12,12 0 0,0 60,50 A10,10 0 1,1 40,50" transform="translate(0, 5)"/>
    <!-- Center Point -->
    <circle cx="50" cy="50" r="1.5" fill="white"/>
  </g>
</svg>